<?xml version="1.0" encoding="UTF-8" standalone="no"?>
<!DOCTYPE svg PUBLIC "-//W3C//DTD SVG 1.1//EN"
 "http://www.w3.org/Graphics/SVG/1.1/DTD/svg11.dtd">
<!-- Generated by graphviz version 2.40.1 (20161225.0304)
 -->
<!-- Title: controllers_diagram Pages: 1 -->
<svg width="533pt" height="551pt"
 viewBox="0.00 0.00 533.43 551.00" xmlns="http://www.w3.org/2000/svg" xmlns:xlink="http://www.w3.org/1999/xlink">
<g id="graph0" class="graph" transform="scale(1 1) rotate(0) translate(4 547)">
<title>controllers_diagram</title>
<polygon fill="transparent" stroke="transparent" points="-4,4 -4,-547 529.4277,-547 529.4277,4 -4,4"/>
<!-- _diagram_info -->
<g id="node1" class="node">
<title>_diagram_info</title>
<text text-anchor="start" x="188" y="-418.6" font-family="Times,serif" font-size="13.00" fill="#000000">Controllers diagram</text>
<text text-anchor="start" x="188" y="-405.6" font-family="Times,serif" font-size="13.00" fill="#000000">Date: Oct 10 2017 &#45; 02:07</text>
<text text-anchor="start" x="188" y="-392.6" font-family="Times,serif" font-size="13.00" fill="#000000">Migration version: 20170515162719</text>
<text text-anchor="start" x="188" y="-379.6" font-family="Times,serif" font-size="13.00" fill="#000000">Generated by RailRoady 1.5.2</text>
<text text-anchor="start" x="188" y="-366.6" font-family="Times,serif" font-size="13.00" fill="#000000">http://railroady.prestonlee.com</text>
</g>
<!-- ApplicationController -->
<g id="node2" class="node">
<title>ApplicationController</title>
<path fill="none" stroke="#000000" d="M12,-400.5C12,-400.5 127.6416,-400.5 127.6416,-400.5 133.6416,-400.5 139.6416,-406.5 139.6416,-412.5 139.6416,-412.5 139.6416,-492.5 139.6416,-492.5 139.6416,-498.5 133.6416,-504.5 127.6416,-504.5 127.6416,-504.5 12,-504.5 12,-504.5 6,-504.5 0,-498.5 0,-492.5 0,-492.5 0,-412.5 0,-412.5 0,-406.5 6,-400.5 12,-400.5"/>
<text text-anchor="middle" x="69.8208" y="-489.3" font-family="Times,serif" font-size="14.00" fill="#000000">ApplicationController</text>
<polyline fill="none" stroke="#000000" points="0,-482.5 139.6416,-482.5 "/>
<text text-anchor="start" x="8" y="-467.3" font-family="Times,serif" font-size="14.00" fill="#000000">unsubscribe</text>
<polyline fill="none" stroke="#000000" points="0,-460.5 139.6416,-460.5 "/>
<polyline fill="none" stroke="#000000" points="0,-436.5 139.6416,-436.5 "/>
<text text-anchor="start" x="8" y="-421.3" font-family="Times,serif" font-size="14.00" fill="#000000">_layout</text>
<text text-anchor="start" x="8" y="-407.3" font-family="Times,serif" font-size="14.00" fill="#000000">layout_by_resource</text>
</g>
<!-- MailMessagesController -->
<g id="node3" class="node">
<title>MailMessagesController</title>
<path fill="none" stroke="#000000" d="M372,-40.5C372,-40.5 502.4209,-40.5 502.4209,-40.5 508.4209,-40.5 514.4209,-46.5 514.4209,-52.5 514.4209,-52.5 514.4209,-286.5 514.4209,-286.5 514.4209,-292.5 508.4209,-298.5 502.4209,-298.5 502.4209,-298.5 372,-298.5 372,-298.5 366,-298.5 360,-292.5 360,-286.5 360,-286.5 360,-52.5 360,-52.5 360,-46.5 366,-40.5 372,-40.5"/>
<text text-anchor="middle" x="437.2104" y="-283.3" font-family="Times,serif" font-size="14.00" fill="#000000">MailMessagesController</text>
<polyline fill="none" stroke="#000000" points="360,-276.5 514.4209,-276.5 "/>
<text text-anchor="start" x="368" y="-261.3" font-family="Times,serif" font-size="14.00" fill="#000000">answers_as</text>
<text text-anchor="start" x="368" y="-247.3" font-family="Times,serif" font-size="14.00" fill="#000000">create</text>
<text text-anchor="start" x="368" y="-233.3" font-family="Times,serif" font-size="14.00" fill="#000000">deliver</text>
<text text-anchor="start" x="368" y="-219.3" font-family="Times,serif" font-size="14.00" fill="#000000">destroy</text>
<text text-anchor="start" x="368" y="-205.3" font-family="Times,serif" font-size="14.00" fill="#000000">edit</text>
<text text-anchor="start" x="368" y="-191.3" font-family="Times,serif" font-size="14.00" fill="#000000">index</text>
<text text-anchor="start" x="368" y="-177.3" font-family="Times,serif" font-size="14.00" fill="#000000">new</text>
<text text-anchor="start" x="368" y="-163.3" font-family="Times,serif" font-size="14.00" fill="#000000">recipients</text>
<text text-anchor="start" x="368" y="-149.3" font-family="Times,serif" font-size="14.00" fill="#000000">show</text>
<text text-anchor="start" x="368" y="-135.3" font-family="Times,serif" font-size="14.00" fill="#000000">update</text>
<polyline fill="none" stroke="#000000" points="360,-128.5 514.4209,-128.5 "/>
<polyline fill="none" stroke="#000000" points="360,-104.5 514.4209,-104.5 "/>
<text text-anchor="start" x="368" y="-89.3" font-family="Times,serif" font-size="14.00" fill="#000000">_layout</text>
<text text-anchor="start" x="368" y="-75.3" font-family="Times,serif" font-size="14.00" fill="#000000">mail_message_params</text>
<text text-anchor="start" x="368" y="-61.3" font-family="Times,serif" font-size="14.00" fill="#000000">set_mail_message</text>
<text text-anchor="start" x="368" y="-47.3" font-family="Times,serif" font-size="14.00" fill="#000000">set_survey</text>
</g>
<!-- SurveysController -->
<g id="node4" class="node">
<title>SurveysController</title>
<path fill="none" stroke="#000000" d="M172,-.5C172,-.5 308.6416,-.5 308.6416,-.5 314.6416,-.5 320.6416,-6.5 320.6416,-12.5 320.6416,-12.5 320.6416,-302.5 320.6416,-302.5 320.6416,-308.5 314.6416,-314.5 308.6416,-314.5 308.6416,-314.5 172,-314.5 172,-314.5 166,-314.5 160,-308.5 160,-302.5 160,-302.5 160,-12.5 160,-12.5 160,-6.5 166,-.5 172,-.5"/>
<text text-anchor="middle" x="240.3208" y="-299.3" font-family="Times,serif" font-size="14.00" fill="#000000">SurveysController</text>
<polyline fill="none" stroke="#000000" points="160,-292.5 320.6416,-292.5 "/>
<text text-anchor="start" x="168" y="-277.3" font-family="Times,serif" font-size="14.00" fill="#000000">confirm</text>
<text text-anchor="start" x="168" y="-263.3" font-family="Times,serif" font-size="14.00" fill="#000000">create</text>
<text text-anchor="start" x="168" y="-249.3" font-family="Times,serif" font-size="14.00" fill="#000000">create_reply</text>
<text text-anchor="start" x="168" y="-235.3" font-family="Times,serif" font-size="14.00" fill="#000000">destroy</text>
<text text-anchor="start" x="168" y="-221.3" font-family="Times,serif" font-size="14.00" fill="#000000">edit</text>
<text text-anchor="start" x="168" y="-207.3" font-family="Times,serif" font-size="14.00" fill="#000000">edit_questions</text>
<text text-anchor="start" x="168" y="-193.3" font-family="Times,serif" font-size="14.00" fill="#000000">index</text>
<text text-anchor="start" x="168" y="-179.3" font-family="Times,serif" font-size="14.00" fill="#000000">new</text>
<text text-anchor="start" x="168" y="-165.3" font-family="Times,serif" font-size="14.00" fill="#000000">new_reply</text>
<text text-anchor="start" x="168" y="-151.3" font-family="Times,serif" font-size="14.00" fill="#000000">show</text>
<text text-anchor="start" x="168" y="-137.3" font-family="Times,serif" font-size="14.00" fill="#000000">update</text>
<text text-anchor="start" x="168" y="-123.3" font-family="Times,serif" font-size="14.00" fill="#000000">update_questions</text>
<polyline fill="none" stroke="#000000" points="160,-116.5 320.6416,-116.5 "/>
<polyline fill="none" stroke="#000000" points="160,-92.5 320.6416,-92.5 "/>
<text text-anchor="start" x="168" y="-77.3" font-family="Times,serif" font-size="14.00" fill="#000000">_layout</text>
<text text-anchor="start" x="168" y="-63.3" font-family="Times,serif" font-size="14.00" fill="#000000">reply_params</text>
<text text-anchor="start" x="168" y="-49.3" font-family="Times,serif" font-size="14.00" fill="#000000">set_reply</text>
<text text-anchor="start" x="168" y="-35.3" font-family="Times,serif" font-size="14.00" fill="#000000">set_survey</text>
<text text-anchor="start" x="168" y="-21.3" font-family="Times,serif" font-size="14.00" fill="#000000">survey_params</text>
<text text-anchor="start" x="168" y="-7.3" font-family="Times,serif" font-size="14.00" fill="#000000">survey_questions_params</text>
</g>
<!-- UsersController -->
<g id="node5" class="node">
<title>UsersController</title>
<path fill="none" stroke="#000000" d="M432,-340.5C432,-340.5 513.4277,-340.5 513.4277,-340.5 519.4277,-340.5 525.4277,-346.5 525.4277,-352.5 525.4277,-352.5 525.4277,-530.5 525.4277,-530.5 525.4277,-536.5 519.4277,-542.5 513.4277,-542.5 513.4277,-542.5 432,-542.5 432,-542.5 426,-542.5 420,-536.5 420,-530.5 420,-530.5 420,-352.5 420,-352.5 420,-346.5 426,-340.5 432,-340.5"/>
<text text-anchor="middle" x="472.7139" y="-527.3" font-family="Times,serif" font-size="14.00" fill="#000000">UsersController</text>
<polyline fill="none" stroke="#000000" points="420,-520.5 525.4277,-520.5 "/>
<text text-anchor="start" x="428" y="-505.3" font-family="Times,serif" font-size="14.00" fill="#000000">create</text>
<text text-anchor="start" x="428" y="-491.3" font-family="Times,serif" font-size="14.00" fill="#000000">destroy</text>
<text text-anchor="start" x="428" y="-477.3" font-family="Times,serif" font-size="14.00" fill="#000000">edit</text>
<text text-anchor="start" x="428" y="-463.3" font-family="Times,serif" font-size="14.00" fill="#000000">index</text>
<text text-anchor="start" x="428" y="-449.3" font-family="Times,serif" font-size="14.00" fill="#000000">new</text>
<text text-anchor="start" x="428" y="-435.3" font-family="Times,serif" font-size="14.00" fill="#000000">show</text>
<text text-anchor="start" x="428" y="-421.3" font-family="Times,serif" font-size="14.00" fill="#000000">update</text>
<polyline fill="none" stroke="#000000" points="420,-414.5 525.4277,-414.5 "/>
<polyline fill="none" stroke="#000000" points="420,-390.5 525.4277,-390.5 "/>
<text text-anchor="start" x="428" y="-375.3" font-family="Times,serif" font-size="14.00" fill="#000000">_layout</text>
<text text-anchor="start" x="428" y="-361.3" font-family="Times,serif" font-size="14.00" fill="#000000">set_user</text>
<text text-anchor="start" x="428" y="-347.3" font-family="Times,serif" font-size="14.00" fill="#000000">user_params</text>
</g>
</g>
</svg>
