<?xml version="1.0" encoding="UTF-8" standalone="no"?>
<!DOCTYPE svg PUBLIC "-//W3C//DTD SVG 1.1//EN"
 "http://www.w3.org/Graphics/SVG/1.1/DTD/svg11.dtd">
<!-- Generated by graphviz version 2.40.1 (20161225.0304)
 -->
<!-- Title: models_diagram Pages: 1 -->
<svg width="1296pt" height="369pt"
 viewBox="0.00 0.00 1296.05 369.00" xmlns="http://www.w3.org/2000/svg" xmlns:xlink="http://www.w3.org/1999/xlink">
<g id="graph0" class="graph" transform="scale(1 1) rotate(0) translate(4 365)">
<title>models_diagram</title>
<polygon fill="transparent" stroke="transparent" points="-4,4 -4,-365 1292.0503,-365 1292.0503,4 -4,4"/>
<!-- _diagram_info -->
<g id="node1" class="node">
<title>_diagram_info</title>
<text text-anchor="start" x="326.3626" y="-346.6" font-family="Times,serif" font-size="13.00" fill="#000000">Models diagram</text>
<text text-anchor="start" x="326.3626" y="-333.6" font-family="Times,serif" font-size="13.00" fill="#000000">Date: Oct 10 2017 &#45; 02:07</text>
<text text-anchor="start" x="326.3626" y="-320.6" font-family="Times,serif" font-size="13.00" fill="#000000">Migration version: 20170515162719</text>
<text text-anchor="start" x="326.3626" y="-307.6" font-family="Times,serif" font-size="13.00" fill="#000000">Generated by RailRoady 1.5.2</text>
<text text-anchor="start" x="326.3626" y="-294.6" font-family="Times,serif" font-size="13.00" fill="#000000">http://railroady.prestonlee.com</text>
</g>
<!-- Alternative -->
<g id="node2" class="node">
<title>Alternative</title>
<ellipse fill="none" stroke="#000000" cx="332.0503" cy="-162" rx="49.7706" ry="18"/>
<text text-anchor="middle" x="332.0503" y="-157.8" font-family="Times,serif" font-size="14.00" fill="#000000">Alternative</text>
</g>
<!-- Answer -->
<g id="node3" class="node">
<title>Answer</title>
<ellipse fill="none" stroke="#000000" cx="693.0503" cy="-18" rx="37.7266" ry="18"/>
<text text-anchor="middle" x="693.0503" y="-13.8" font-family="Times,serif" font-size="14.00" fill="#000000">Answer</text>
</g>
<!-- Ckeditor::Asset -->
<g id="node4" class="node">
<title>Ckeditor::Asset</title>
<ellipse fill="none" stroke="#000000" cx="698.0503" cy="-324.5" rx="65.7408" ry="18"/>
<text text-anchor="middle" x="698.0503" y="-320.3" font-family="Times,serif" font-size="14.00" fill="#000000">Ckeditor::Asset</text>
</g>
<!-- Ckeditor::AttachmentFile -->
<g id="node5" class="node">
<title>Ckeditor::AttachmentFile</title>
<ellipse fill="none" stroke="#000000" cx="883.0503" cy="-324.5" rx="100.9624" ry="18"/>
<text text-anchor="middle" x="883.0503" y="-320.3" font-family="Times,serif" font-size="14.00" fill="#000000">Ckeditor::AttachmentFile</text>
</g>
<!-- Ckeditor::Picture -->
<g id="node6" class="node">
<title>Ckeditor::Picture</title>
<ellipse fill="none" stroke="#000000" cx="1073.0503" cy="-324.5" rx="71.0358" ry="18"/>
<text text-anchor="middle" x="1073.0503" y="-320.3" font-family="Times,serif" font-size="14.00" fill="#000000">Ckeditor::Picture</text>
</g>
<!-- Condition -->
<g id="node7" class="node">
<title>Condition</title>
<ellipse fill="none" stroke="#000000" cx="182.0503" cy="-90" rx="45.47" ry="18"/>
<text text-anchor="middle" x="182.0503" y="-85.8" font-family="Times,serif" font-size="14.00" fill="#000000">Condition</text>
</g>
<!-- Item -->
<g id="node8" class="node">
<title>Item</title>
<ellipse fill="none" stroke="#000000" cx="182.0503" cy="-162" rx="27" ry="18"/>
<text text-anchor="middle" x="182.0503" y="-157.8" font-family="Times,serif" font-size="14.00" fill="#000000">Item</text>
</g>
<!-- Item&#45;&gt;Condition -->
<g id="edge1" class="edge">
<title>Item&#45;&gt;Condition</title>
<path fill="none" stroke="#101b55" d="M182.0503,-135.8144C182.0503,-130.2775 182.0503,-124.4053 182.0503,-118.7785"/>
<ellipse fill="none" stroke="#101b55" cx="182.0504" cy="-139.8314" rx="4" ry="4"/>
<polygon fill="#101b55" stroke="#101b55" points="182.0504,-118.4133 186.5503,-108.4132 182.0504,-113.4133 182.0503,-108.4133 182.0503,-108.4133 182.0503,-108.4133 182.0504,-113.4133 177.5503,-108.4133 182.0504,-118.4133 182.0504,-118.4133"/>
</g>
<!-- Log -->
<g id="node9" class="node">
<title>Log</title>
<ellipse fill="none" stroke="#000000" cx="1189.0503" cy="-324.5" rx="27" ry="18"/>
<text text-anchor="middle" x="1189.0503" y="-320.3" font-family="Times,serif" font-size="14.00" fill="#000000">Log</text>
</g>
<!-- MailMessage -->
<g id="node10" class="node">
<title>MailMessage</title>
<ellipse fill="none" stroke="#000000" cx="622.0503" cy="-234" rx="57.5065" ry="18"/>
<text text-anchor="middle" x="622.0503" y="-229.8" font-family="Times,serif" font-size="14.00" fill="#000000">MailMessage</text>
</g>
<!-- Recipient -->
<g id="node15" class="node">
<title>Recipient</title>
<ellipse fill="none" stroke="#000000" cx="598.0503" cy="-162" rx="43.9905" ry="18"/>
<text text-anchor="middle" x="598.0503" y="-157.8" font-family="Times,serif" font-size="14.00" fill="#000000">Recipient</text>
</g>
<!-- MailMessage&#45;&gt;Recipient -->
<g id="edge3" class="edge">
<title>MailMessage&#45;&gt;Recipient</title>
<path fill="none" stroke="#620d06" d="M612.8056,-206.2657C610.9627,-200.7371 609.0282,-194.9336 607.1889,-189.4158"/>
<polygon fill="#620d06" stroke="#620d06" points="612.8318,-206.3445 611.725,-217.2544 614.4129,-211.0879 615.9941,-215.8314 615.9941,-215.8314 615.9941,-215.8314 614.4129,-211.0879 620.2632,-214.4083 612.8318,-206.3445 612.8318,-206.3445"/>
<polygon fill="#620d06" stroke="#620d06" points="607.1838,-189.4002 608.2905,-178.4904 605.6026,-184.6568 604.0215,-179.9134 604.0215,-179.9134 604.0215,-179.9134 605.6026,-184.6568 599.7524,-181.3365 607.1838,-189.4002 607.1838,-189.4002"/>
</g>
<!-- Reply -->
<g id="node16" class="node">
<title>Reply</title>
<ellipse fill="none" stroke="#000000" cx="693.0503" cy="-90" rx="31.4636" ry="18"/>
<text text-anchor="middle" x="693.0503" y="-85.8" font-family="Times,serif" font-size="14.00" fill="#000000">Reply</text>
</g>
<!-- MailMessage&#45;&gt;Reply -->
<g id="edge2" class="edge">
<title>MailMessage&#45;&gt;Reply</title>
<path fill="none" stroke="#db15c2" d="M635.9192,-208.8793C640.8127,-199.8334 646.281,-189.5128 651.0503,-180 661.5481,-159.0611 672.7311,-135.0022 680.9162,-117.0304"/>
<ellipse fill="none" stroke="#db15c2" cx="633.884" cy="-212.6189" rx="4" ry="4"/>
<polygon fill="#db15c2" stroke="#db15c2" points="681.003,-116.8387 689.2302,-109.5886 683.0673,-112.2848 685.1316,-107.7308 685.1316,-107.7308 685.1316,-107.7308 683.0673,-112.2848 681.033,-105.8729 681.003,-116.8387 681.003,-116.8387"/>
</g>
<!-- Message -->
<g id="node11" class="node">
<title>Message</title>
<ellipse fill="none" stroke="#000000" cx="41.0503" cy="-234" rx="41.1007" ry="18"/>
<text text-anchor="middle" x="41.0503" y="-229.8" font-family="Times,serif" font-size="14.00" fill="#000000">Message</text>
</g>
<!-- Message&#45;&gt;Condition -->
<g id="edge4" class="edge">
<title>Message&#45;&gt;Condition</title>
<path fill="none" stroke="#7b90e7" d="M63.2193,-211.3593C89.0832,-184.9451 131.6797,-141.4423 158.2314,-114.3257"/>
<ellipse fill="none" stroke="#7b90e7" cx="60.2993" cy="-214.3415" rx="4" ry="4"/>
<polygon fill="#7b90e7" stroke="#7b90e7" points="158.2713,-114.2849 168.4829,-110.2881 161.7695,-110.7124 165.2676,-107.1398 165.2676,-107.1398 165.2676,-107.1398 161.7695,-110.7124 162.0523,-103.9915 158.2713,-114.2849 158.2713,-114.2849"/>
</g>
<!-- Message&#45;&gt;Item -->
<g id="edge5" class="edge">
<title>Message&#45;&gt;Item</title>
<path fill="none" stroke="#753291" d="M75.1143,-216.6056C98.946,-204.4362 130.438,-188.3552 153.066,-176.8005"/>
<ellipse fill="none" stroke="#753291" cx="71.4656" cy="-218.4687" rx="4" ry="4"/>
<ellipse fill="#753291" stroke="#753291" cx="156.8138" cy="-174.8868" rx="4" ry="4"/>
</g>
<!-- MultipleChoiceQuestion -->
<g id="node12" class="node">
<title>MultipleChoiceQuestion</title>
<ellipse fill="none" stroke="#000000" cx="410.0503" cy="-234" rx="97.5967" ry="18"/>
<text text-anchor="middle" x="410.0503" y="-229.8" font-family="Times,serif" font-size="14.00" fill="#000000">MultipleChoiceQuestion</text>
</g>
<!-- MultipleChoiceQuestion&#45;&gt;Alternative -->
<g id="edge8" class="edge">
<title>MultipleChoiceQuestion&#45;&gt;Alternative</title>
<path fill="none" stroke="#d4a94c" d="M384.7406,-210.6372C376.1478,-202.7054 366.5394,-193.8361 357.9046,-185.8655"/>
<ellipse fill="none" stroke="#d4a94c" cx="387.8302" cy="-213.4891" rx="4" ry="4"/>
<polygon fill="#d4a94c" stroke="#d4a94c" points="357.6536,-185.6338 353.3578,-175.5443 353.9796,-182.2424 350.3055,-178.851 350.3055,-178.851 350.3055,-178.851 353.9796,-182.2424 347.2533,-182.1576 357.6536,-185.6338 357.6536,-185.6338"/>
</g>
<!-- MultipleChoiceQuestion&#45;&gt;Condition -->
<g id="edge6" class="edge">
<title>MultipleChoiceQuestion&#45;&gt;Condition</title>
<path fill="none" stroke="#d9cf38" d="M411.467,-207.8149C411.0841,-187.8009 407.1772,-160.8659 391.0503,-144 369.821,-121.798 290.0757,-105.887 235.4636,-97.3143"/>
<ellipse fill="none" stroke="#d9cf38" cx="411.4537" cy="-211.9191" rx="4" ry="4"/>
<polygon fill="#d9cf38" stroke="#d9cf38" points="235.1248,-97.2625 225.9214,-91.3004 230.1824,-96.5055 225.2401,-95.7486 225.2401,-95.7486 225.2401,-95.7486 230.1824,-96.5055 224.5588,-100.1967 235.1248,-97.2625 235.1248,-97.2625"/>
</g>
<!-- MultipleChoiceQuestion&#45;&gt;Item -->
<g id="edge7" class="edge">
<title>MultipleChoiceQuestion&#45;&gt;Item</title>
<path fill="none" stroke="#4293d4" d="M352.8783,-215.9457C309.0723,-202.1122 250.2237,-183.5284 214.2765,-172.1767"/>
<ellipse fill="none" stroke="#4293d4" cx="356.7634" cy="-217.1725" rx="4" ry="4"/>
<ellipse fill="#4293d4" stroke="#4293d4" cx="210.3441" cy="-170.9349" rx="4" ry="4"/>
</g>
<!-- Page -->
<g id="node13" class="node">
<title>Page</title>
<ellipse fill="none" stroke="#000000" cx="127.0503" cy="-234" rx="27.0958" ry="18"/>
<text text-anchor="middle" x="127.0503" y="-229.8" font-family="Times,serif" font-size="14.00" fill="#000000">Page</text>
</g>
<!-- Page&#45;&gt;Condition -->
<g id="edge9" class="edge">
<title>Page&#45;&gt;Condition</title>
<path fill="none" stroke="#a9265e" d="M129.9022,-207.8531C132.5413,-189.4572 137.4083,-164.5531 146.0503,-144 150.1344,-134.287 156.0385,-124.4644 161.888,-115.9084"/>
<ellipse fill="none" stroke="#a9265e" cx="129.3698" cy="-211.8435" rx="4" ry="4"/>
<polygon fill="#a9265e" stroke="#a9265e" points="162.0747,-115.6469 171.5478,-110.1232 164.9801,-111.5776 167.8855,-107.5084 167.8855,-107.5084 167.8855,-107.5084 164.9801,-111.5776 164.2232,-104.8935 162.0747,-115.6469 162.0747,-115.6469"/>
</g>
<!-- Page&#45;&gt;Item -->
<g id="edge10" class="edge">
<title>Page&#45;&gt;Item</title>
<path fill="none" stroke="#864eb9" d="M144.4148,-211.2683C150.4887,-203.317 157.3296,-194.3617 163.4968,-186.2883"/>
<ellipse fill="none" stroke="#864eb9" cx="141.9588" cy="-214.4834" rx="4" ry="4"/>
<polygon fill="#864eb9" stroke="#864eb9" points="163.5489,-186.22 173.1954,-181.005 166.5841,-182.2466 169.6194,-178.2733 169.6194,-178.2733 169.6194,-178.2733 166.5841,-182.2466 166.0433,-175.5416 163.5489,-186.22 163.5489,-186.22"/>
</g>
<!-- Question -->
<g id="node14" class="node">
<title>Question</title>
<ellipse fill="none" stroke="#000000" cx="252.0503" cy="-234" rx="42.0784" ry="18"/>
<text text-anchor="middle" x="252.0503" y="-229.8" font-family="Times,serif" font-size="14.00" fill="#000000">Question</text>
</g>
<!-- Question&#45;&gt;Condition -->
<g id="edge11" class="edge">
<title>Question&#45;&gt;Condition</title>
<path fill="none" stroke="#5a0f77" d="M243.966,-207.9706C237.8529,-189.6294 228.7072,-164.7425 218.0503,-144 213.1073,-134.3789 206.809,-124.3798 200.867,-115.6393"/>
<ellipse fill="none" stroke="#5a0f77" cx="245.3137" cy="-212.0963" rx="4" ry="4"/>
<polygon fill="#5a0f77" stroke="#5a0f77" points="200.8269,-115.5817 198.7985,-104.805 197.9671,-111.4803 195.1073,-107.3789 195.1073,-107.3789 195.1073,-107.3789 197.9671,-111.4803 191.416,-109.9527 200.8269,-115.5817 200.8269,-115.5817"/>
</g>
<!-- Question&#45;&gt;Item -->
<g id="edge12" class="edge">
<title>Question&#45;&gt;Item</title>
<path fill="none" stroke="#4123f0" d="M230.0235,-211.3438C221.2153,-202.284 211.1302,-191.9107 202.4871,-183.0207"/>
<ellipse fill="none" stroke="#4123f0" cx="233.0266" cy="-214.4328" rx="4" ry="4"/>
<ellipse fill="#4123f0" stroke="#4123f0" cx="199.5556" cy="-180.0054" rx="4" ry="4"/>
</g>
<!-- Recipient&#45;&gt;Reply -->
<g id="edge13" class="edge">
<title>Recipient&#45;&gt;Reply</title>
<path fill="none" stroke="#4c22fe" d="M625.5472,-141.1603C638.1579,-131.6026 653.0702,-120.3007 665.6671,-110.7536"/>
<ellipse fill="none" stroke="#4c22fe" cx="622.3218" cy="-143.6048" rx="4" ry="4"/>
<polygon fill="#4c22fe" stroke="#4c22fe" points="665.9916,-110.5077 676.6794,-108.0538 669.9765,-107.4876 673.9613,-104.4674 673.9613,-104.4674 673.9613,-104.4674 669.9765,-107.4876 671.2432,-100.8811 665.9916,-110.5077 665.9916,-110.5077"/>
</g>
<!-- Reply&#45;&gt;Answer -->
<g id="edge14" class="edge">
<title>Reply&#45;&gt;Answer</title>
<path fill="none" stroke="#14ea78" d="M693.0503,-63.8144C693.0503,-58.2775 693.0503,-52.4053 693.0503,-46.7785"/>
<ellipse fill="none" stroke="#14ea78" cx="693.0504" cy="-67.8314" rx="4" ry="4"/>
<polygon fill="#14ea78" stroke="#14ea78" points="693.0504,-46.4133 697.5503,-36.4132 693.0504,-41.4133 693.0503,-36.4133 693.0503,-36.4133 693.0503,-36.4133 693.0504,-41.4133 688.5503,-36.4133 693.0504,-46.4133 693.0504,-46.4133"/>
</g>
<!-- Survey -->
<g id="node17" class="node">
<title>Survey</title>
<ellipse fill="none" stroke="#000000" cx="579.0503" cy="-324.5" rx="35.3216" ry="18"/>
<text text-anchor="middle" x="579.0503" y="-320.3" font-family="Times,serif" font-size="14.00" fill="#000000">Survey</text>
</g>
<!-- Reply&#45;&gt;Survey -->
<g id="edge15" class="edge">
<title>Reply&#45;&gt;Survey</title>
<path fill="none" stroke="#076946" d="M705.7427,-115.1466C716.0586,-148.9616 723.8611,-209.7185 698.0503,-252 680.6407,-280.5193 659.7041,-269.2461 632.0503,-288 624.3776,-293.2034 616.4463,-299.4689 609.0294,-305.3287"/>
<ellipse fill="none" stroke="#076946" cx="704.3475" cy="-110.9531" rx="4" ry="4"/>
<ellipse fill="#076946" stroke="#076946" cx="605.529" cy="-308.0814" rx="4" ry="4"/>
</g>
<!-- Survey&#45;&gt;Item -->
<g id="edge20" class="edge">
<title>Survey&#45;&gt;Item</title>
<path fill="none" stroke="#5661e1" d="M556.315,-301.4109C549.9253,-296.1682 542.6352,-291.2063 535.0503,-288 466.2893,-258.9336 256.4268,-302.0638 201.0503,-252 184.1809,-236.749 180.2001,-210.6157 179.9889,-190.4266"/>
<polygon fill="#5661e1" stroke="#5661e1" points="556.385,-301.4726 560.9033,-311.4644 560.1332,-304.7818 563.8815,-308.0909 563.8815,-308.0909 563.8815,-308.0909 560.1332,-304.7818 566.8598,-304.7175 556.385,-301.4726 556.385,-301.4726"/>
<polygon fill="#5661e1" stroke="#5661e1" points="179.9929,-190.213 184.6865,-180.3023 180.0901,-185.2139 180.1873,-180.2149 180.1873,-180.2149 180.1873,-180.2149 180.0901,-185.2139 175.6882,-180.1274 179.9929,-190.213 179.9929,-190.213"/>
</g>
<!-- Survey&#45;&gt;MailMessage -->
<g id="edge16" class="edge">
<title>Survey&#45;&gt;MailMessage</title>
<path fill="none" stroke="#ba00b7" d="M591.1062,-299.1266C596.7519,-287.2444 603.4819,-273.0801 609.2215,-261.0002"/>
<ellipse fill="none" stroke="#ba00b7" cx="589.2624" cy="-303.0072" rx="4" ry="4"/>
<polygon fill="#ba00b7" stroke="#ba00b7" points="609.2809,-260.875 617.6371,-253.774 611.4267,-256.3589 613.5725,-251.8427 613.5725,-251.8427 613.5725,-251.8427 611.4267,-256.3589 609.508,-249.9115 609.2809,-260.875 609.2809,-260.875"/>
</g>
<!-- Survey&#45;&gt;Page -->
<g id="edge19" class="edge">
<title>Survey&#45;&gt;Page</title>
<path fill="none" stroke="#a59b24" d="M557.6017,-302.4129C550.9174,-296.7867 543.1572,-291.3812 535.0503,-288 383.7855,-224.9112 326.6141,-293.458 168.0503,-252 164.8163,-251.1544 161.5119,-250.0851 158.2521,-248.891"/>
<ellipse fill="none" stroke="#a59b24" cx="560.9188" cy="-305.3793" rx="4" ry="4"/>
<polygon fill="#a59b24" stroke="#a59b24" points="157.9908,-248.7852 150.4095,-240.8621 153.356,-246.9093 148.7212,-245.0334 148.7212,-245.0334 148.7212,-245.0334 153.356,-246.9093 147.0329,-249.2047 157.9908,-248.7852 157.9908,-248.7852"/>
</g>
<!-- Survey&#45;&gt;Recipient -->
<g id="edge18" class="edge">
<title>Survey&#45;&gt;Recipient</title>
<path fill="none" stroke="#c33e54" d="M564.9979,-297.6831C555.2468,-275.4205 545.5689,-243.1278 555.0503,-216 558.8647,-205.0864 565.9105,-194.7299 573.2105,-186.0603"/>
<polygon fill="#c33e54" stroke="#c33e54" points="565.0489,-297.7928 565.1903,-308.7578 567.1594,-302.3256 569.2698,-306.8583 569.2698,-306.8583 569.2698,-306.8583 567.1594,-302.3256 573.3493,-304.9589 565.0489,-297.7928 565.0489,-297.7928"/>
<polygon fill="#c33e54" stroke="#c33e54" points="573.2217,-186.0478 583.2499,-181.6107 576.5612,-182.3265 579.9007,-178.6052 579.9007,-178.6052 579.9007,-178.6052 576.5612,-182.3265 576.5515,-175.5996 573.2217,-186.0478 573.2217,-186.0478"/>
</g>
<!-- Survey&#45;&gt;Reply -->
<g id="edge17" class="edge">
<title>Survey&#45;&gt;Reply</title>
<path fill="none" stroke="#4df423" d="M597.4599,-300.5346C602.6997,-296.171 608.444,-291.802 614.0503,-288 641.7041,-269.2461 662.6407,-280.5193 680.0503,-252 705.0497,-211.0476 698.5159,-152.7632 694.0289,-118.414"/>
<polygon fill="#4df423" stroke="#4df423" points="597.2548,-300.7143 586.7679,-303.9201 593.4942,-304.0095 589.7336,-307.3047 589.7336,-307.3047 589.7336,-307.3047 593.4942,-304.0095 592.6993,-310.6892 597.2548,-300.7143 597.2548,-300.7143"/>
<polygon fill="#4df423" stroke="#4df423" points="693.984,-118.0705 697.1485,-107.5712 693.3353,-113.1128 692.6865,-108.155 692.6865,-108.155 692.6865,-108.155 693.3353,-113.1128 688.2246,-108.7389 693.984,-118.0705 693.984,-118.0705"/>
</g>
<!-- User -->
<g id="node18" class="node">
<title>User</title>
<ellipse fill="none" stroke="#000000" cx="1261.0503" cy="-324.5" rx="27" ry="18"/>
<text text-anchor="middle" x="1261.0503" y="-320.3" font-family="Times,serif" font-size="14.00" fill="#000000">User</text>
</g>
</g>
</svg>
