<?xml version="1.0" encoding="UTF-8" standalone="no"?>
<!DOCTYPE svg PUBLIC "-//W3C//DTD SVG 1.1//EN"
 "http://www.w3.org/Graphics/SVG/1.1/DTD/svg11.dtd">
<!-- Generated by graphviz version 2.40.1 (20161225.0304)
 -->
<!-- Title: models_diagram Pages: 1 -->
<svg width="2720pt" height="909pt"
 viewBox="0.00 0.00 2720.50 909.00" xmlns="http://www.w3.org/2000/svg" xmlns:xlink="http://www.w3.org/1999/xlink">
<g id="graph0" class="graph" transform="scale(1 1) rotate(0) translate(4 905)">
<title>models_diagram</title>
<polygon fill="transparent" stroke="transparent" points="-4,4 -4,-905 2716.4971,-905 2716.4971,4 -4,4"/>
<!-- _diagram_info -->
<g id="node1" class="node">
<title>_diagram_info</title>
<text text-anchor="start" x="846.1746" y="-816.6" font-family="Times,serif" font-size="13.00" fill="#000000">Models diagram</text>
<text text-anchor="start" x="846.1746" y="-803.6" font-family="Times,serif" font-size="13.00" fill="#000000">Date: Oct 10 2017 &#45; 02:07</text>
<text text-anchor="start" x="846.1746" y="-790.6" font-family="Times,serif" font-size="13.00" fill="#000000">Migration version: 20170515162719</text>
<text text-anchor="start" x="846.1746" y="-777.6" font-family="Times,serif" font-size="13.00" fill="#000000">Generated by RailRoady 1.5.2</text>
<text text-anchor="start" x="846.1746" y="-764.6" font-family="Times,serif" font-size="13.00" fill="#000000">http://railroady.prestonlee.com</text>
</g>
<!-- Alternative -->
<g id="node2" class="node">
<title>Alternative</title>
<path fill="none" stroke="#000000" d="M734,-358.5C734,-358.5 957.7246,-358.5 957.7246,-358.5 963.7246,-358.5 969.7246,-364.5 969.7246,-370.5 969.7246,-370.5 969.7246,-446.5 969.7246,-446.5 969.7246,-452.5 963.7246,-458.5 957.7246,-458.5 957.7246,-458.5 734,-458.5 734,-458.5 728,-458.5 722,-452.5 722,-446.5 722,-446.5 722,-370.5 722,-370.5 722,-364.5 728,-358.5 734,-358.5"/>
<text text-anchor="middle" x="845.8623" y="-443.3" font-family="Times,serif" font-size="14.00" fill="#000000">Alternative</text>
<polyline fill="none" stroke="#000000" points="722,-436.5 969.7246,-436.5 "/>
<text text-anchor="start" x="730" y="-421.3" font-family="Times,serif" font-size="14.00" fill="#000000">id :integer</text>
<text text-anchor="start" x="730" y="-407.3" font-family="Times,serif" font-size="14.00" fill="#000000">value :character varying</text>
<text text-anchor="start" x="730" y="-393.3" font-family="Times,serif" font-size="14.00" fill="#000000">multiple_choice_question_id :integer</text>
<text text-anchor="start" x="730" y="-379.3" font-family="Times,serif" font-size="14.00" fill="#000000">created_at :timestamp without time zone</text>
<text text-anchor="start" x="730" y="-365.3" font-family="Times,serif" font-size="14.00" fill="#000000">updated_at :timestamp without time zone</text>
</g>
<!-- Answer -->
<g id="node3" class="node">
<title>Answer</title>
<path fill="none" stroke="#000000" d="M1289,-.5C1289,-.5 1512.7246,-.5 1512.7246,-.5 1518.7246,-.5 1524.7246,-6.5 1524.7246,-12.5 1524.7246,-12.5 1524.7246,-102.5 1524.7246,-102.5 1524.7246,-108.5 1518.7246,-114.5 1512.7246,-114.5 1512.7246,-114.5 1289,-114.5 1289,-114.5 1283,-114.5 1277,-108.5 1277,-102.5 1277,-102.5 1277,-12.5 1277,-12.5 1277,-6.5 1283,-.5 1289,-.5"/>
<text text-anchor="middle" x="1400.8623" y="-99.3" font-family="Times,serif" font-size="14.00" fill="#000000">Answer</text>
<polyline fill="none" stroke="#000000" points="1277,-92.5 1524.7246,-92.5 "/>
<text text-anchor="start" x="1285" y="-77.3" font-family="Times,serif" font-size="14.00" fill="#000000">id :integer</text>
<text text-anchor="start" x="1285" y="-63.3" font-family="Times,serif" font-size="14.00" fill="#000000">value :character varying</text>
<text text-anchor="start" x="1285" y="-49.3" font-family="Times,serif" font-size="14.00" fill="#000000">reply_id :integer</text>
<text text-anchor="start" x="1285" y="-35.3" font-family="Times,serif" font-size="14.00" fill="#000000">item_id :integer</text>
<text text-anchor="start" x="1285" y="-21.3" font-family="Times,serif" font-size="14.00" fill="#000000">created_at :timestamp without time zone</text>
<text text-anchor="start" x="1285" y="-7.3" font-family="Times,serif" font-size="14.00" fill="#000000">updated_at :timestamp without time zone</text>
</g>
<!-- Ckeditor::Asset -->
<g id="node4" class="node">
<title>Ckeditor::Asset</title>
<path fill="none" stroke="#000000" d="M1342,-702.5C1342,-702.5 1565.7246,-702.5 1565.7246,-702.5 1571.7246,-702.5 1577.7246,-708.5 1577.7246,-714.5 1577.7246,-714.5 1577.7246,-874.5 1577.7246,-874.5 1577.7246,-880.5 1571.7246,-886.5 1565.7246,-886.5 1565.7246,-886.5 1342,-886.5 1342,-886.5 1336,-886.5 1330,-880.5 1330,-874.5 1330,-874.5 1330,-714.5 1330,-714.5 1330,-708.5 1336,-702.5 1342,-702.5"/>
<text text-anchor="middle" x="1453.8623" y="-871.3" font-family="Times,serif" font-size="14.00" fill="#000000">Ckeditor::Asset</text>
<polyline fill="none" stroke="#000000" points="1330,-864.5 1577.7246,-864.5 "/>
<text text-anchor="start" x="1338" y="-849.3" font-family="Times,serif" font-size="14.00" fill="#000000">id :integer</text>
<text text-anchor="start" x="1338" y="-835.3" font-family="Times,serif" font-size="14.00" fill="#000000">data_file_name :character varying</text>
<text text-anchor="start" x="1338" y="-821.3" font-family="Times,serif" font-size="14.00" fill="#000000">data_content_type :character varying</text>
<text text-anchor="start" x="1338" y="-807.3" font-family="Times,serif" font-size="14.00" fill="#000000">data_file_size :integer</text>
<text text-anchor="start" x="1338" y="-793.3" font-family="Times,serif" font-size="14.00" fill="#000000">assetable_id :integer</text>
<text text-anchor="start" x="1338" y="-779.3" font-family="Times,serif" font-size="14.00" fill="#000000">assetable_type :character varying(30)</text>
<text text-anchor="start" x="1338" y="-765.3" font-family="Times,serif" font-size="14.00" fill="#000000">type :character varying(30)</text>
<text text-anchor="start" x="1338" y="-751.3" font-family="Times,serif" font-size="14.00" fill="#000000">width :integer</text>
<text text-anchor="start" x="1338" y="-737.3" font-family="Times,serif" font-size="14.00" fill="#000000">height :integer</text>
<text text-anchor="start" x="1338" y="-723.3" font-family="Times,serif" font-size="14.00" fill="#000000">created_at :timestamp without time zone</text>
<text text-anchor="start" x="1338" y="-709.3" font-family="Times,serif" font-size="14.00" fill="#000000">updated_at :timestamp without time zone</text>
</g>
<!-- Ckeditor::AttachmentFile -->
<g id="node5" class="node">
<title>Ckeditor::AttachmentFile</title>
<path fill="none" stroke="#000000" d="M1608,-702.5C1608,-702.5 1831.7246,-702.5 1831.7246,-702.5 1837.7246,-702.5 1843.7246,-708.5 1843.7246,-714.5 1843.7246,-714.5 1843.7246,-874.5 1843.7246,-874.5 1843.7246,-880.5 1837.7246,-886.5 1831.7246,-886.5 1831.7246,-886.5 1608,-886.5 1608,-886.5 1602,-886.5 1596,-880.5 1596,-874.5 1596,-874.5 1596,-714.5 1596,-714.5 1596,-708.5 1602,-702.5 1608,-702.5"/>
<text text-anchor="middle" x="1719.8623" y="-871.3" font-family="Times,serif" font-size="14.00" fill="#000000">Ckeditor::AttachmentFile</text>
<polyline fill="none" stroke="#000000" points="1596,-864.5 1843.7246,-864.5 "/>
<text text-anchor="start" x="1604" y="-849.3" font-family="Times,serif" font-size="14.00" fill="#000000">id :integer</text>
<text text-anchor="start" x="1604" y="-835.3" font-family="Times,serif" font-size="14.00" fill="#000000">data_file_name :character varying</text>
<text text-anchor="start" x="1604" y="-821.3" font-family="Times,serif" font-size="14.00" fill="#000000">data_content_type :character varying</text>
<text text-anchor="start" x="1604" y="-807.3" font-family="Times,serif" font-size="14.00" fill="#000000">data_file_size :integer</text>
<text text-anchor="start" x="1604" y="-793.3" font-family="Times,serif" font-size="14.00" fill="#000000">assetable_id :integer</text>
<text text-anchor="start" x="1604" y="-779.3" font-family="Times,serif" font-size="14.00" fill="#000000">assetable_type :character varying(30)</text>
<text text-anchor="start" x="1604" y="-765.3" font-family="Times,serif" font-size="14.00" fill="#000000">type :character varying(30)</text>
<text text-anchor="start" x="1604" y="-751.3" font-family="Times,serif" font-size="14.00" fill="#000000">width :integer</text>
<text text-anchor="start" x="1604" y="-737.3" font-family="Times,serif" font-size="14.00" fill="#000000">height :integer</text>
<text text-anchor="start" x="1604" y="-723.3" font-family="Times,serif" font-size="14.00" fill="#000000">created_at :timestamp without time zone</text>
<text text-anchor="start" x="1604" y="-709.3" font-family="Times,serif" font-size="14.00" fill="#000000">updated_at :timestamp without time zone</text>
</g>
<!-- Ckeditor::Picture -->
<g id="node6" class="node">
<title>Ckeditor::Picture</title>
<path fill="none" stroke="#000000" d="M1874,-702.5C1874,-702.5 2097.7246,-702.5 2097.7246,-702.5 2103.7246,-702.5 2109.7246,-708.5 2109.7246,-714.5 2109.7246,-714.5 2109.7246,-874.5 2109.7246,-874.5 2109.7246,-880.5 2103.7246,-886.5 2097.7246,-886.5 2097.7246,-886.5 1874,-886.5 1874,-886.5 1868,-886.5 1862,-880.5 1862,-874.5 1862,-874.5 1862,-714.5 1862,-714.5 1862,-708.5 1868,-702.5 1874,-702.5"/>
<text text-anchor="middle" x="1985.8623" y="-871.3" font-family="Times,serif" font-size="14.00" fill="#000000">Ckeditor::Picture</text>
<polyline fill="none" stroke="#000000" points="1862,-864.5 2109.7246,-864.5 "/>
<text text-anchor="start" x="1870" y="-849.3" font-family="Times,serif" font-size="14.00" fill="#000000">id :integer</text>
<text text-anchor="start" x="1870" y="-835.3" font-family="Times,serif" font-size="14.00" fill="#000000">data_file_name :character varying</text>
<text text-anchor="start" x="1870" y="-821.3" font-family="Times,serif" font-size="14.00" fill="#000000">data_content_type :character varying</text>
<text text-anchor="start" x="1870" y="-807.3" font-family="Times,serif" font-size="14.00" fill="#000000">data_file_size :integer</text>
<text text-anchor="start" x="1870" y="-793.3" font-family="Times,serif" font-size="14.00" fill="#000000">assetable_id :integer</text>
<text text-anchor="start" x="1870" y="-779.3" font-family="Times,serif" font-size="14.00" fill="#000000">assetable_type :character varying(30)</text>
<text text-anchor="start" x="1870" y="-765.3" font-family="Times,serif" font-size="14.00" fill="#000000">type :character varying(30)</text>
<text text-anchor="start" x="1870" y="-751.3" font-family="Times,serif" font-size="14.00" fill="#000000">width :integer</text>
<text text-anchor="start" x="1870" y="-737.3" font-family="Times,serif" font-size="14.00" fill="#000000">height :integer</text>
<text text-anchor="start" x="1870" y="-723.3" font-family="Times,serif" font-size="14.00" fill="#000000">created_at :timestamp without time zone</text>
<text text-anchor="start" x="1870" y="-709.3" font-family="Times,serif" font-size="14.00" fill="#000000">updated_at :timestamp without time zone</text>
</g>
<!-- Condition -->
<g id="node7" class="node">
<title>Condition</title>
<path fill="none" stroke="#000000" d="M430,-151.5C430,-151.5 653.7246,-151.5 653.7246,-151.5 659.7246,-151.5 665.7246,-157.5 665.7246,-163.5 665.7246,-163.5 665.7246,-295.5 665.7246,-295.5 665.7246,-301.5 659.7246,-307.5 653.7246,-307.5 653.7246,-307.5 430,-307.5 430,-307.5 424,-307.5 418,-301.5 418,-295.5 418,-295.5 418,-163.5 418,-163.5 418,-157.5 424,-151.5 430,-151.5"/>
<text text-anchor="middle" x="541.8623" y="-292.3" font-family="Times,serif" font-size="14.00" fill="#000000">Condition</text>
<polyline fill="none" stroke="#000000" points="418,-285.5 665.7246,-285.5 "/>
<text text-anchor="start" x="426" y="-270.3" font-family="Times,serif" font-size="14.00" fill="#000000">id :integer</text>
<text text-anchor="start" x="426" y="-256.3" font-family="Times,serif" font-size="14.00" fill="#000000">reference_type :character varying</text>
<text text-anchor="start" x="426" y="-242.3" font-family="Times,serif" font-size="14.00" fill="#000000">reference :character varying</text>
<text text-anchor="start" x="426" y="-228.3" font-family="Times,serif" font-size="14.00" fill="#000000">comparator :character varying</text>
<text text-anchor="start" x="426" y="-214.3" font-family="Times,serif" font-size="14.00" fill="#000000">value :character varying</text>
<text text-anchor="start" x="426" y="-200.3" font-family="Times,serif" font-size="14.00" fill="#000000">conditionable_id :integer</text>
<text text-anchor="start" x="426" y="-186.3" font-family="Times,serif" font-size="14.00" fill="#000000">conditionable_type :character varying</text>
<text text-anchor="start" x="426" y="-172.3" font-family="Times,serif" font-size="14.00" fill="#000000">created_at :timestamp without time zone</text>
<text text-anchor="start" x="426" y="-158.3" font-family="Times,serif" font-size="14.00" fill="#000000">updated_at :timestamp without time zone</text>
</g>
<!-- Item -->
<g id="node8" class="node">
<title>Item</title>
<path fill="none" stroke="#000000" d="M430,-344.5C430,-344.5 653.7246,-344.5 653.7246,-344.5 659.7246,-344.5 665.7246,-350.5 665.7246,-356.5 665.7246,-356.5 665.7246,-460.5 665.7246,-460.5 665.7246,-466.5 659.7246,-472.5 653.7246,-472.5 653.7246,-472.5 430,-472.5 430,-472.5 424,-472.5 418,-466.5 418,-460.5 418,-460.5 418,-356.5 418,-356.5 418,-350.5 424,-344.5 430,-344.5"/>
<text text-anchor="middle" x="541.8623" y="-457.3" font-family="Times,serif" font-size="14.00" fill="#000000">Item</text>
<polyline fill="none" stroke="#000000" points="418,-450.5 665.7246,-450.5 "/>
<text text-anchor="start" x="426" y="-435.3" font-family="Times,serif" font-size="14.00" fill="#000000">id :integer</text>
<text text-anchor="start" x="426" y="-421.3" font-family="Times,serif" font-size="14.00" fill="#000000">sequence :integer</text>
<text text-anchor="start" x="426" y="-407.3" font-family="Times,serif" font-size="14.00" fill="#000000">created_at :timestamp without time zone</text>
<text text-anchor="start" x="426" y="-393.3" font-family="Times,serif" font-size="14.00" fill="#000000">updated_at :timestamp without time zone</text>
<text text-anchor="start" x="426" y="-379.3" font-family="Times,serif" font-size="14.00" fill="#000000">actable_id :integer</text>
<text text-anchor="start" x="426" y="-365.3" font-family="Times,serif" font-size="14.00" fill="#000000">actable_type :character varying</text>
<text text-anchor="start" x="426" y="-351.3" font-family="Times,serif" font-size="14.00" fill="#000000">page_id :integer</text>
</g>
<!-- Item&#45;&gt;Condition -->
<g id="edge1" class="edge">
<title>Item&#45;&gt;Condition</title>
<path fill="none" stroke="#d82daf" d="M541.8623,-336.1785C541.8623,-330.1403 541.8623,-323.9937 541.8623,-317.8542"/>
<ellipse fill="none" stroke="#d82daf" cx="541.8624" cy="-340.3825" rx="4" ry="4"/>
<polygon fill="#d82daf" stroke="#d82daf" points="541.8624,-317.5492 546.3623,-307.5492 541.8624,-312.5492 541.8623,-307.5492 541.8623,-307.5492 541.8623,-307.5492 541.8624,-312.5492 537.3623,-307.5493 541.8624,-317.5492 541.8624,-317.5492"/>
</g>
<!-- Log -->
<g id="node9" class="node">
<title>Log</title>
<path fill="none" stroke="#000000" d="M2140,-730.5C2140,-730.5 2363.7246,-730.5 2363.7246,-730.5 2369.7246,-730.5 2375.7246,-736.5 2375.7246,-742.5 2375.7246,-742.5 2375.7246,-846.5 2375.7246,-846.5 2375.7246,-852.5 2369.7246,-858.5 2363.7246,-858.5 2363.7246,-858.5 2140,-858.5 2140,-858.5 2134,-858.5 2128,-852.5 2128,-846.5 2128,-846.5 2128,-742.5 2128,-742.5 2128,-736.5 2134,-730.5 2140,-730.5"/>
<text text-anchor="middle" x="2251.8623" y="-843.3" font-family="Times,serif" font-size="14.00" fill="#000000">Log</text>
<polyline fill="none" stroke="#000000" points="2128,-836.5 2375.7246,-836.5 "/>
<text text-anchor="start" x="2136" y="-821.3" font-family="Times,serif" font-size="14.00" fill="#000000">id :integer</text>
<text text-anchor="start" x="2136" y="-807.3" font-family="Times,serif" font-size="14.00" fill="#000000">action :character varying</text>
<text text-anchor="start" x="2136" y="-793.3" font-family="Times,serif" font-size="14.00" fill="#000000">value :character varying</text>
<text text-anchor="start" x="2136" y="-779.3" font-family="Times,serif" font-size="14.00" fill="#000000">question_number :integer</text>
<text text-anchor="start" x="2136" y="-765.3" font-family="Times,serif" font-size="14.00" fill="#000000">reply_id :integer</text>
<text text-anchor="start" x="2136" y="-751.3" font-family="Times,serif" font-size="14.00" fill="#000000">created_at :timestamp without time zone</text>
<text text-anchor="start" x="2136" y="-737.3" font-family="Times,serif" font-size="14.00" fill="#000000">updated_at :timestamp without time zone</text>
</g>
<!-- MailMessage -->
<g id="node10" class="node">
<title>MailMessage</title>
<path fill="none" stroke="#000000" d="M1152,-523.5C1152,-523.5 1375.7246,-523.5 1375.7246,-523.5 1381.7246,-523.5 1387.7246,-529.5 1387.7246,-535.5 1387.7246,-535.5 1387.7246,-625.5 1387.7246,-625.5 1387.7246,-631.5 1381.7246,-637.5 1375.7246,-637.5 1375.7246,-637.5 1152,-637.5 1152,-637.5 1146,-637.5 1140,-631.5 1140,-625.5 1140,-625.5 1140,-535.5 1140,-535.5 1140,-529.5 1146,-523.5 1152,-523.5"/>
<text text-anchor="middle" x="1263.8623" y="-622.3" font-family="Times,serif" font-size="14.00" fill="#000000">MailMessage</text>
<polyline fill="none" stroke="#000000" points="1140,-615.5 1387.7246,-615.5 "/>
<text text-anchor="start" x="1148" y="-600.3" font-family="Times,serif" font-size="14.00" fill="#000000">id :integer</text>
<text text-anchor="start" x="1148" y="-586.3" font-family="Times,serif" font-size="14.00" fill="#000000">subject :character varying</text>
<text text-anchor="start" x="1148" y="-572.3" font-family="Times,serif" font-size="14.00" fill="#000000">content :text</text>
<text text-anchor="start" x="1148" y="-558.3" font-family="Times,serif" font-size="14.00" fill="#000000">survey_id :integer</text>
<text text-anchor="start" x="1148" y="-544.3" font-family="Times,serif" font-size="14.00" fill="#000000">created_at :timestamp without time zone</text>
<text text-anchor="start" x="1148" y="-530.3" font-family="Times,serif" font-size="14.00" fill="#000000">updated_at :timestamp without time zone</text>
</g>
<!-- Recipient -->
<g id="node15" class="node">
<title>Recipient</title>
<path fill="none" stroke="#000000" d="M1114,-358.5C1114,-358.5 1337.7246,-358.5 1337.7246,-358.5 1343.7246,-358.5 1349.7246,-364.5 1349.7246,-370.5 1349.7246,-370.5 1349.7246,-446.5 1349.7246,-446.5 1349.7246,-452.5 1343.7246,-458.5 1337.7246,-458.5 1337.7246,-458.5 1114,-458.5 1114,-458.5 1108,-458.5 1102,-452.5 1102,-446.5 1102,-446.5 1102,-370.5 1102,-370.5 1102,-364.5 1108,-358.5 1114,-358.5"/>
<text text-anchor="middle" x="1225.8623" y="-443.3" font-family="Times,serif" font-size="14.00" fill="#000000">Recipient</text>
<polyline fill="none" stroke="#000000" points="1102,-436.5 1349.7246,-436.5 "/>
<text text-anchor="start" x="1110" y="-421.3" font-family="Times,serif" font-size="14.00" fill="#000000">id :integer</text>
<text text-anchor="start" x="1110" y="-407.3" font-family="Times,serif" font-size="14.00" fill="#000000">email :character varying</text>
<text text-anchor="start" x="1110" y="-393.3" font-family="Times,serif" font-size="14.00" fill="#000000">subscribed :boolean</text>
<text text-anchor="start" x="1110" y="-379.3" font-family="Times,serif" font-size="14.00" fill="#000000">created_at :timestamp without time zone</text>
<text text-anchor="start" x="1110" y="-365.3" font-family="Times,serif" font-size="14.00" fill="#000000">updated_at :timestamp without time zone</text>
</g>
<!-- MailMessage&#45;&gt;Recipient -->
<g id="edge3" class="edge">
<title>MailMessage&#45;&gt;Recipient</title>
<path fill="none" stroke="#c34e52" d="M1249.0065,-513.2581C1245.7393,-498.4696 1242.3002,-482.9033 1239.1017,-468.4258"/>
<polygon fill="#c34e52" stroke="#c34e52" points="1249.0515,-513.462 1246.8148,-524.1973 1250.1302,-518.3442 1251.2089,-523.2265 1251.2089,-523.2265 1251.2089,-523.2265 1250.1302,-518.3442 1255.6029,-522.2557 1249.0515,-513.462 1249.0515,-513.462"/>
<polygon fill="#c34e52" stroke="#c34e52" points="1239.0882,-468.3643 1241.3249,-457.629 1238.0095,-463.4821 1236.9309,-458.5998 1236.9309,-458.5998 1236.9309,-458.5998 1238.0095,-463.4821 1232.5368,-459.5706 1239.0882,-468.3643 1239.0882,-468.3643"/>
</g>
<!-- Reply -->
<g id="node16" class="node">
<title>Reply</title>
<path fill="none" stroke="#000000" d="M1289,-165.5C1289,-165.5 1512.7246,-165.5 1512.7246,-165.5 1518.7246,-165.5 1524.7246,-171.5 1524.7246,-177.5 1524.7246,-177.5 1524.7246,-281.5 1524.7246,-281.5 1524.7246,-287.5 1518.7246,-293.5 1512.7246,-293.5 1512.7246,-293.5 1289,-293.5 1289,-293.5 1283,-293.5 1277,-287.5 1277,-281.5 1277,-281.5 1277,-177.5 1277,-177.5 1277,-171.5 1283,-165.5 1289,-165.5"/>
<text text-anchor="middle" x="1400.8623" y="-278.3" font-family="Times,serif" font-size="14.00" fill="#000000">Reply</text>
<polyline fill="none" stroke="#000000" points="1277,-271.5 1524.7246,-271.5 "/>
<text text-anchor="start" x="1285" y="-256.3" font-family="Times,serif" font-size="14.00" fill="#000000">id :integer</text>
<text text-anchor="start" x="1285" y="-242.3" font-family="Times,serif" font-size="14.00" fill="#000000">link_hash :character varying</text>
<text text-anchor="start" x="1285" y="-228.3" font-family="Times,serif" font-size="14.00" fill="#000000">mail_message_id :integer</text>
<text text-anchor="start" x="1285" y="-214.3" font-family="Times,serif" font-size="14.00" fill="#000000">created_at :timestamp without time zone</text>
<text text-anchor="start" x="1285" y="-200.3" font-family="Times,serif" font-size="14.00" fill="#000000">updated_at :timestamp without time zone</text>
<text text-anchor="start" x="1285" y="-186.3" font-family="Times,serif" font-size="14.00" fill="#000000">recipient_id :integer</text>
<text text-anchor="start" x="1285" y="-172.3" font-family="Times,serif" font-size="14.00" fill="#000000">sended :boolean</text>
</g>
<!-- MailMessage&#45;&gt;Reply -->
<g id="edge2" class="edge">
<title>MailMessage&#45;&gt;Reply</title>
<path fill="none" stroke="#f2a60f" d="M1329.7985,-517.2437C1340.9895,-503.6092 1351.389,-488.5792 1358.8623,-473 1384.3355,-419.8976 1394.5661,-353.7187 1398.5768,-303.762"/>
<ellipse fill="none" stroke="#f2a60f" cx="1327.1852" cy="-520.3472" rx="4" ry="4"/>
<polygon fill="#f2a60f" stroke="#f2a60f" points="1398.5849,-303.6504 1403.8079,-294.0083 1398.9525,-298.6639 1399.3201,-293.6774 1399.3201,-293.6774 1399.3201,-293.6774 1398.9525,-298.6639 1394.8323,-293.3466 1398.5849,-303.6504 1398.5849,-303.6504"/>
</g>
<!-- Message -->
<g id="node11" class="node">
<title>Message</title>
<path fill="none" stroke="#000000" d="M12,-537.5C12,-537.5 235.7246,-537.5 235.7246,-537.5 241.7246,-537.5 247.7246,-543.5 247.7246,-549.5 247.7246,-549.5 247.7246,-611.5 247.7246,-611.5 247.7246,-617.5 241.7246,-623.5 235.7246,-623.5 235.7246,-623.5 12,-623.5 12,-623.5 6,-623.5 0,-617.5 0,-611.5 0,-611.5 0,-549.5 0,-549.5 0,-543.5 6,-537.5 12,-537.5"/>
<text text-anchor="middle" x="123.8623" y="-608.3" font-family="Times,serif" font-size="14.00" fill="#000000">Message</text>
<polyline fill="none" stroke="#000000" points="0,-601.5 247.7246,-601.5 "/>
<text text-anchor="start" x="8" y="-586.3" font-family="Times,serif" font-size="14.00" fill="#000000">id :integer</text>
<text text-anchor="start" x="8" y="-572.3" font-family="Times,serif" font-size="14.00" fill="#000000">content :text</text>
<text text-anchor="start" x="8" y="-558.3" font-family="Times,serif" font-size="14.00" fill="#000000">created_at :timestamp without time zone</text>
<text text-anchor="start" x="8" y="-544.3" font-family="Times,serif" font-size="14.00" fill="#000000">updated_at :timestamp without time zone</text>
</g>
<!-- Message&#45;&gt;Condition -->
<g id="edge4" class="edge">
<title>Message&#45;&gt;Condition</title>
<path fill="none" stroke="#189b4f" d="M172.5989,-531.2276C222.4089,-481.8214 302.8793,-404.5883 377.8623,-344 390.388,-333.8789 403.7574,-323.6673 417.2538,-313.7301"/>
<ellipse fill="none" stroke="#189b4f" cx="169.5159" cy="-534.292" rx="4" ry="4"/>
<polygon fill="#189b4f" stroke="#189b4f" points="417.5935,-313.4819 428.3224,-311.2147 421.6304,-310.5317 425.6673,-307.5815 425.6673,-307.5815 425.6673,-307.5815 421.6304,-310.5317 423.0121,-303.9483 417.5935,-313.4819 417.5935,-313.4819"/>
</g>
<!-- Message&#45;&gt;Item -->
<g id="edge5" class="edge">
<title>Message&#45;&gt;Item</title>
<path fill="none" stroke="#157a73" d="M206.6422,-533.4657C223.0586,-524.8622 240.3315,-516.3059 256.8623,-509 305.9434,-487.3084 361.2979,-466.9077 410.0788,-450.2287"/>
<ellipse fill="none" stroke="#157a73" cx="202.7019" cy="-535.5483" rx="4" ry="4"/>
<ellipse fill="#157a73" stroke="#157a73" cx="414.0627" cy="-448.8729" rx="4" ry="4"/>
</g>
<!-- MultipleChoiceQuestion -->
<g id="node12" class="node">
<title>MultipleChoiceQuestion</title>
<path fill="none" stroke="#000000" d="M848,-509.5C848,-509.5 1071.7246,-509.5 1071.7246,-509.5 1077.7246,-509.5 1083.7246,-515.5 1083.7246,-521.5 1083.7246,-521.5 1083.7246,-639.5 1083.7246,-639.5 1083.7246,-645.5 1077.7246,-651.5 1071.7246,-651.5 1071.7246,-651.5 848,-651.5 848,-651.5 842,-651.5 836,-645.5 836,-639.5 836,-639.5 836,-521.5 836,-521.5 836,-515.5 842,-509.5 848,-509.5"/>
<text text-anchor="middle" x="959.8623" y="-636.3" font-family="Times,serif" font-size="14.00" fill="#000000">MultipleChoiceQuestion</text>
<polyline fill="none" stroke="#000000" points="836,-629.5 1083.7246,-629.5 "/>
<text text-anchor="start" x="844" y="-614.3" font-family="Times,serif" font-size="14.00" fill="#000000">id :integer</text>
<text text-anchor="start" x="844" y="-600.3" font-family="Times,serif" font-size="14.00" fill="#000000">number :integer</text>
<text text-anchor="start" x="844" y="-586.3" font-family="Times,serif" font-size="14.00" fill="#000000">title :character varying</text>
<text text-anchor="start" x="844" y="-572.3" font-family="Times,serif" font-size="14.00" fill="#000000">description :text</text>
<text text-anchor="start" x="844" y="-558.3" font-family="Times,serif" font-size="14.00" fill="#000000">is_required :boolean</text>
<text text-anchor="start" x="844" y="-544.3" font-family="Times,serif" font-size="14.00" fill="#000000">accepts_multiple :boolean</text>
<text text-anchor="start" x="844" y="-530.3" font-family="Times,serif" font-size="14.00" fill="#000000">created_at :timestamp without time zone</text>
<text text-anchor="start" x="844" y="-516.3" font-family="Times,serif" font-size="14.00" fill="#000000">updated_at :timestamp without time zone</text>
</g>
<!-- MultipleChoiceQuestion&#45;&gt;Alternative -->
<g id="edge8" class="edge">
<title>MultipleChoiceQuestion&#45;&gt;Alternative</title>
<path fill="none" stroke="#624c84" d="M907.9985,-502.2493C900.1475,-490.4039 892.1654,-478.3608 884.6546,-467.0287"/>
<ellipse fill="none" stroke="#624c84" cx="910.2966" cy="-505.7166" rx="4" ry="4"/>
<polygon fill="#624c84" stroke="#624c84" points="884.5376,-466.8521 882.7638,-456.0306 881.7752,-462.6844 879.0129,-458.5167 879.0129,-458.5167 879.0129,-458.5167 881.7752,-462.6844 875.262,-461.0028 884.5376,-466.8521 884.5376,-466.8521"/>
</g>
<!-- MultipleChoiceQuestion&#45;&gt;Condition -->
<g id="edge6" class="edge">
<title>MultipleChoiceQuestion&#45;&gt;Condition</title>
<path fill="none" stroke="#7146c7" d="M991.3454,-501.4746C1005.6922,-451.4088 1012.8433,-388.0316 978.8623,-344 941.8181,-295.9992 790.1084,-264.2128 675.7576,-246.5648"/>
<ellipse fill="none" stroke="#7146c7" cx="990.1287" cy="-505.5571" rx="4" ry="4"/>
<polygon fill="#7146c7" stroke="#7146c7" points="675.7441,-246.5628 666.5353,-240.6089 670.8011,-245.8103 665.858,-245.0577 665.858,-245.0577 665.858,-245.0577 670.8011,-245.8103 665.1807,-249.5064 675.7441,-246.5628 675.7441,-246.5628"/>
</g>
<!-- MultipleChoiceQuestion&#45;&gt;Item -->
<g id="edge7" class="edge">
<title>MultipleChoiceQuestion&#45;&gt;Item</title>
<path fill="none" stroke="#25988b" d="M828.5627,-509.7219C827.9951,-509.4797 827.4283,-509.239 826.8623,-509 777.9148,-488.3299 763.0715,-490.3824 712.8623,-473 700.0796,-468.5746 686.812,-463.8344 673.5754,-459.0069"/>
<ellipse fill="none" stroke="#25988b" cx="832.3097" cy="-511.3559" rx="4" ry="4"/>
<ellipse fill="#25988b" stroke="#25988b" cx="669.5456" cy="-457.5315" rx="4" ry="4"/>
</g>
<!-- Page -->
<g id="node13" class="node">
<title>Page</title>
<path fill="none" stroke="#000000" d="M278,-523.5C278,-523.5 501.7246,-523.5 501.7246,-523.5 507.7246,-523.5 513.7246,-529.5 513.7246,-535.5 513.7246,-535.5 513.7246,-625.5 513.7246,-625.5 513.7246,-631.5 507.7246,-637.5 501.7246,-637.5 501.7246,-637.5 278,-637.5 278,-637.5 272,-637.5 266,-631.5 266,-625.5 266,-625.5 266,-535.5 266,-535.5 266,-529.5 272,-523.5 278,-523.5"/>
<text text-anchor="middle" x="389.8623" y="-622.3" font-family="Times,serif" font-size="14.00" fill="#000000">Page</text>
<polyline fill="none" stroke="#000000" points="266,-615.5 513.7246,-615.5 "/>
<text text-anchor="start" x="274" y="-600.3" font-family="Times,serif" font-size="14.00" fill="#000000">id :integer</text>
<text text-anchor="start" x="274" y="-586.3" font-family="Times,serif" font-size="14.00" fill="#000000">survey_id :integer</text>
<text text-anchor="start" x="274" y="-572.3" font-family="Times,serif" font-size="14.00" fill="#000000">sequence :integer</text>
<text text-anchor="start" x="274" y="-558.3" font-family="Times,serif" font-size="14.00" fill="#000000">title :character varying</text>
<text text-anchor="start" x="274" y="-544.3" font-family="Times,serif" font-size="14.00" fill="#000000">created_at :timestamp without time zone</text>
<text text-anchor="start" x="274" y="-530.3" font-family="Times,serif" font-size="14.00" fill="#000000">updated_at :timestamp without time zone</text>
</g>
<!-- Page&#45;&gt;Condition -->
<g id="edge9" class="edge">
<title>Page&#45;&gt;Condition</title>
<path fill="none" stroke="#2a7d09" d="M382.1895,-515.1444C379.3247,-465.5355 381.9091,-397.0497 408.8623,-344 413.9859,-333.9156 420.4206,-324.3481 427.6783,-315.3596"/>
<ellipse fill="none" stroke="#2a7d09" cx="382.4562" cy="-519.2565" rx="4" ry="4"/>
<polygon fill="#2a7d09" stroke="#2a7d09" points="427.7842,-315.2348 437.6864,-310.5234 431.02,-311.423 434.2558,-307.6112 434.2558,-307.6112 434.2558,-307.6112 431.02,-311.423 430.8252,-304.699 427.7842,-315.2348 427.7842,-315.2348"/>
</g>
<!-- Page&#45;&gt;Item -->
<g id="edge10" class="edge">
<title>Page&#45;&gt;Item</title>
<path fill="none" stroke="#82d216" d="M445.9112,-517.0762C456.5188,-505.0729 467.6844,-492.4382 478.4987,-480.2009"/>
<ellipse fill="none" stroke="#82d216" cx="443.1249" cy="-520.2292" rx="4" ry="4"/>
<polygon fill="#82d216" stroke="#82d216" points="478.5567,-480.1353 488.5507,-475.6219 481.8677,-476.3886 485.1787,-472.642 485.1787,-472.642 485.1787,-472.642 481.8677,-476.3886 481.8067,-469.6621 478.5567,-480.1353 478.5567,-480.1353"/>
</g>
<!-- Question -->
<g id="node14" class="node">
<title>Question</title>
<path fill="none" stroke="#000000" d="M582,-516.5C582,-516.5 805.7246,-516.5 805.7246,-516.5 811.7246,-516.5 817.7246,-522.5 817.7246,-528.5 817.7246,-528.5 817.7246,-632.5 817.7246,-632.5 817.7246,-638.5 811.7246,-644.5 805.7246,-644.5 805.7246,-644.5 582,-644.5 582,-644.5 576,-644.5 570,-638.5 570,-632.5 570,-632.5 570,-528.5 570,-528.5 570,-522.5 576,-516.5 582,-516.5"/>
<text text-anchor="middle" x="693.8623" y="-629.3" font-family="Times,serif" font-size="14.00" fill="#000000">Question</text>
<polyline fill="none" stroke="#000000" points="570,-622.5 817.7246,-622.5 "/>
<text text-anchor="start" x="578" y="-607.3" font-family="Times,serif" font-size="14.00" fill="#000000">id :integer</text>
<text text-anchor="start" x="578" y="-593.3" font-family="Times,serif" font-size="14.00" fill="#000000">number :integer</text>
<text text-anchor="start" x="578" y="-579.3" font-family="Times,serif" font-size="14.00" fill="#000000">title :character varying</text>
<text text-anchor="start" x="578" y="-565.3" font-family="Times,serif" font-size="14.00" fill="#000000">description :text</text>
<text text-anchor="start" x="578" y="-551.3" font-family="Times,serif" font-size="14.00" fill="#000000">is_required :boolean</text>
<text text-anchor="start" x="578" y="-537.3" font-family="Times,serif" font-size="14.00" fill="#000000">created_at :timestamp without time zone</text>
<text text-anchor="start" x="578" y="-523.3" font-family="Times,serif" font-size="14.00" fill="#000000">updated_at :timestamp without time zone</text>
</g>
<!-- Question&#45;&gt;Condition -->
<g id="edge11" class="edge">
<title>Question&#45;&gt;Condition</title>
<path fill="none" stroke="#a0e78e" d="M701.8819,-508.449C704.1234,-459.5031 700.6225,-394.7016 674.8623,-344 669.7387,-333.9156 663.304,-324.3481 656.0464,-315.3596"/>
<ellipse fill="none" stroke="#a0e78e" cx="701.6686" cy="-512.4765" rx="4" ry="4"/>
<polygon fill="#a0e78e" stroke="#a0e78e" points="655.9404,-315.2348 652.8994,-304.699 652.7046,-311.423 649.4688,-307.6112 649.4688,-307.6112 649.4688,-307.6112 652.7046,-311.423 646.0382,-310.5234 655.9404,-315.2348 655.9404,-315.2348"/>
</g>
<!-- Question&#45;&gt;Item -->
<g id="edge12" class="edge">
<title>Question&#45;&gt;Item</title>
<path fill="none" stroke="#bd8ab8" d="M631.8804,-510.3626C622.6514,-499.9192 613.1366,-489.1525 603.9063,-478.7076"/>
<ellipse fill="none" stroke="#bd8ab8" cx="634.6143" cy="-513.4562" rx="4" ry="4"/>
<ellipse fill="#bd8ab8" stroke="#bd8ab8" cx="601.1576" cy="-475.5973" rx="4" ry="4"/>
</g>
<!-- Recipient&#45;&gt;Reply -->
<g id="edge13" class="edge">
<title>Recipient&#45;&gt;Reply</title>
<path fill="none" stroke="#99b310" d="M1280.6712,-352.4383C1296.6621,-336.082 1314.3542,-317.9855 1331.1357,-300.8204"/>
<ellipse fill="none" stroke="#99b310" cx="1277.8716" cy="-355.302" rx="4" ry="4"/>
<polygon fill="#99b310" stroke="#99b310" points="1331.2736,-300.6793 1341.4821,-296.6746 1334.769,-297.104 1338.2644,-293.5287 1338.2644,-293.5287 1338.2644,-293.5287 1334.769,-297.104 1335.0466,-290.3829 1331.2736,-300.6793 1331.2736,-300.6793"/>
</g>
<!-- Reply&#45;&gt;Answer -->
<g id="edge14" class="edge">
<title>Reply&#45;&gt;Answer</title>
<path fill="none" stroke="#90954c" d="M1400.8623,-157.1433C1400.8623,-146.3556 1400.8623,-135.2739 1400.8623,-124.6008"/>
<ellipse fill="none" stroke="#90954c" cx="1400.8624" cy="-161.4535" rx="4" ry="4"/>
<polygon fill="#90954c" stroke="#90954c" points="1400.8624,-124.5159 1405.3623,-114.5159 1400.8624,-119.5159 1400.8623,-114.5159 1400.8623,-114.5159 1400.8623,-114.5159 1400.8624,-119.5159 1396.3623,-114.516 1400.8624,-124.5159 1400.8624,-124.5159"/>
</g>
<!-- Survey -->
<g id="node17" class="node">
<title>Survey</title>
<path fill="none" stroke="#000000" d="M1076,-716.5C1076,-716.5 1299.7246,-716.5 1299.7246,-716.5 1305.7246,-716.5 1311.7246,-722.5 1311.7246,-728.5 1311.7246,-728.5 1311.7246,-860.5 1311.7246,-860.5 1311.7246,-866.5 1305.7246,-872.5 1299.7246,-872.5 1299.7246,-872.5 1076,-872.5 1076,-872.5 1070,-872.5 1064,-866.5 1064,-860.5 1064,-860.5 1064,-728.5 1064,-728.5 1064,-722.5 1070,-716.5 1076,-716.5"/>
<text text-anchor="middle" x="1187.8623" y="-857.3" font-family="Times,serif" font-size="14.00" fill="#000000">Survey</text>
<polyline fill="none" stroke="#000000" points="1064,-850.5 1311.7246,-850.5 "/>
<text text-anchor="start" x="1072" y="-835.3" font-family="Times,serif" font-size="14.00" fill="#000000">id :integer</text>
<text text-anchor="start" x="1072" y="-821.3" font-family="Times,serif" font-size="14.00" fill="#000000">name :character varying</text>
<text text-anchor="start" x="1072" y="-807.3" font-family="Times,serif" font-size="14.00" fill="#000000">title :character varying</text>
<text text-anchor="start" x="1072" y="-793.3" font-family="Times,serif" font-size="14.00" fill="#000000">created_at :timestamp without time zone</text>
<text text-anchor="start" x="1072" y="-779.3" font-family="Times,serif" font-size="14.00" fill="#000000">updated_at :timestamp without time zone</text>
<text text-anchor="start" x="1072" y="-765.3" font-family="Times,serif" font-size="14.00" fill="#000000">users_data :json</text>
<text text-anchor="start" x="1072" y="-751.3" font-family="Times,serif" font-size="14.00" fill="#000000">avaliable_tags :character varying</text>
<text text-anchor="start" x="1072" y="-737.3" font-family="Times,serif" font-size="14.00" fill="#000000">email_tag :character varying</text>
<text text-anchor="start" x="1072" y="-723.3" font-family="Times,serif" font-size="14.00" fill="#000000">users_data_file :character varying</text>
</g>
<!-- Reply&#45;&gt;Survey -->
<g id="edge15" class="edge">
<title>Reply&#45;&gt;Survey</title>
<path fill="none" stroke="#a5ab3e" d="M1428.0542,-301.6926C1452.2607,-391.4192 1473.8575,-545.6712 1405.8623,-652 1385.7264,-683.4879 1361.5531,-668.185 1329.8623,-688 1318.4355,-695.1447 1306.8636,-703.1194 1295.5093,-711.4024"/>
<ellipse fill="none" stroke="#a5ab3e" cx="1426.9236" cy="-297.6033" rx="4" ry="4"/>
<ellipse fill="#a5ab3e" stroke="#a5ab3e" cx="1292.0715" cy="-713.9371" rx="4" ry="4"/>
</g>
<!-- Survey&#45;&gt;Item -->
<g id="edge20" class="edge">
<title>Survey&#45;&gt;Item</title>
<path fill="none" stroke="#93bf42" d="M1097.1344,-710.6084C1083.7085,-701.648 1069.4565,-693.7274 1054.8623,-688 952.401,-647.79 638.892,-729.6308 560.8623,-652 537.7621,-629.0179 535.5507,-545.864 537.4725,-483.0723"/>
<polygon fill="#93bf42" stroke="#93bf42" points="1097.1574,-710.6243 1102.8235,-720.0129 1101.2701,-713.4679 1105.3828,-716.3115 1105.3828,-716.3115 1105.3828,-716.3115 1101.2701,-713.4679 1107.942,-712.6101 1097.1574,-710.6243 1097.1574,-710.6243"/>
<polygon fill="#93bf42" stroke="#93bf42" points="537.4824,-482.7826 542.3263,-472.9446 537.6557,-477.7856 537.829,-472.7886 537.829,-472.7886 537.829,-472.7886 537.6557,-477.7856 533.3317,-472.6327 537.4824,-482.7826 537.4824,-482.7826"/>
</g>
<!-- Survey&#45;&gt;MailMessage -->
<g id="edge16" class="edge">
<title>Survey&#45;&gt;MailMessage</title>
<path fill="none" stroke="#b93ee4" d="M1218.3536,-708.643C1225.6031,-688.2299 1233.2323,-666.7476 1240.1283,-647.3299"/>
<ellipse fill="none" stroke="#b93ee4" cx="1216.9613" cy="-712.5633" rx="4" ry="4"/>
<polygon fill="#b93ee4" stroke="#b93ee4" points="1240.2087,-647.1034 1247.7959,-639.186 1241.882,-642.3917 1243.5554,-637.68 1243.5554,-637.68 1243.5554,-637.68 1241.882,-642.3917 1239.3149,-636.174 1240.2087,-647.1034 1240.2087,-647.1034"/>
</g>
<!-- Survey&#45;&gt;Page -->
<g id="edge19" class="edge">
<title>Survey&#45;&gt;Page</title>
<path fill="none" stroke="#33bdeb" d="M1098.6756,-711.5635C1084.8048,-702.1949 1070.0207,-693.9091 1054.8623,-688 836.1264,-602.7318 753.9285,-715.3257 527.8623,-652 517.9187,-649.2146 507.8642,-645.6642 497.954,-641.6396"/>
<ellipse fill="none" stroke="#33bdeb" cx="1102.1247" cy="-713.9609" rx="4" ry="4"/>
<polygon fill="#33bdeb" stroke="#33bdeb" points="497.7159,-641.539 490.2573,-633.5004 493.1105,-639.5922 488.5051,-637.6453 488.5051,-637.6453 488.5051,-637.6453 493.1105,-639.5922 486.7529,-641.7902 497.7159,-641.539 497.7159,-641.539"/>
</g>
<!-- Survey&#45;&gt;Recipient -->
<g id="edge18" class="edge">
<title>Survey&#45;&gt;Recipient</title>
<path fill="none" stroke="#79fb71" d="M1145.1323,-706.8301C1123.0485,-649.1124 1105.5091,-572.7283 1130.8623,-509 1136.9993,-493.5738 1146.7522,-479.1487 1157.7198,-466.3094"/>
<polygon fill="#79fb71" stroke="#79fb71" points="1145.1935,-706.9855 1144.6689,-717.9388 1147.0248,-711.638 1148.8562,-716.2906 1148.8562,-716.2906 1148.8562,-716.2906 1147.0248,-711.638 1153.0435,-714.6423 1145.1935,-706.9855 1145.1935,-706.9855"/>
<polygon fill="#79fb71" stroke="#79fb71" points="1158.0164,-465.9779 1168.0379,-461.5258 1161.3503,-462.2516 1164.6842,-458.5253 1164.6842,-458.5253 1164.6842,-458.5253 1161.3503,-462.2516 1161.3305,-455.5248 1158.0164,-465.9779 1158.0164,-465.9779"/>
</g>
<!-- Survey&#45;&gt;Reply -->
<g id="edge17" class="edge">
<title>Survey&#45;&gt;Reply</title>
<path fill="none" stroke="#cdc893" d="M1279.1903,-710.2433C1289.9447,-702.3759 1300.9695,-694.8109 1311.8623,-688 1343.5531,-668.185 1367.7264,-683.4879 1387.8623,-652 1455.3787,-546.42 1434.5604,-393.5894 1415.9153,-303.5978"/>
<polygon fill="#cdc893" stroke="#cdc893" points="1279.052,-710.3461 1268.3415,-712.6991 1275.0388,-713.3285 1271.0257,-716.3109 1271.0257,-716.3109 1271.0257,-716.3109 1275.0388,-713.3285 1273.7099,-719.9228 1279.052,-710.3461 1279.052,-710.3461"/>
<polygon fill="#cdc893" stroke="#cdc893" points="1415.9014,-303.5315 1418.235,-292.8168 1414.8669,-298.6397 1413.8324,-293.7479 1413.8324,-293.7479 1413.8324,-293.7479 1414.8669,-298.6397 1409.4297,-294.6789 1415.9014,-303.5315 1415.9014,-303.5315"/>
</g>
<!-- User -->
<g id="node18" class="node">
<title>User</title>
<path fill="none" stroke="#000000" d="M2405.2275,-688.5C2405.2275,-688.5 2700.4971,-688.5 2700.4971,-688.5 2706.4971,-688.5 2712.4971,-694.5 2712.4971,-700.5 2712.4971,-700.5 2712.4971,-888.5 2712.4971,-888.5 2712.4971,-894.5 2706.4971,-900.5 2700.4971,-900.5 2700.4971,-900.5 2405.2275,-900.5 2405.2275,-900.5 2399.2275,-900.5 2393.2275,-894.5 2393.2275,-888.5 2393.2275,-888.5 2393.2275,-700.5 2393.2275,-700.5 2393.2275,-694.5 2399.2275,-688.5 2405.2275,-688.5"/>
<text text-anchor="middle" x="2552.8623" y="-885.3" font-family="Times,serif" font-size="14.00" fill="#000000">User</text>
<polyline fill="none" stroke="#000000" points="2393.2275,-878.5 2712.4971,-878.5 "/>
<text text-anchor="start" x="2401.2275" y="-863.3" font-family="Times,serif" font-size="14.00" fill="#000000">id :integer</text>
<text text-anchor="start" x="2401.2275" y="-849.3" font-family="Times,serif" font-size="14.00" fill="#000000">created_at :timestamp without time zone</text>
<text text-anchor="start" x="2401.2275" y="-835.3" font-family="Times,serif" font-size="14.00" fill="#000000">updated_at :timestamp without time zone</text>
<text text-anchor="start" x="2401.2275" y="-821.3" font-family="Times,serif" font-size="14.00" fill="#000000">email :character varying</text>
<text text-anchor="start" x="2401.2275" y="-807.3" font-family="Times,serif" font-size="14.00" fill="#000000">encrypted_password :character varying</text>
<text text-anchor="start" x="2401.2275" y="-793.3" font-family="Times,serif" font-size="14.00" fill="#000000">reset_password_token :character varying</text>
<text text-anchor="start" x="2401.2275" y="-779.3" font-family="Times,serif" font-size="14.00" fill="#000000">reset_password_sent_at :timestamp without time zone</text>
<text text-anchor="start" x="2401.2275" y="-765.3" font-family="Times,serif" font-size="14.00" fill="#000000">remember_created_at :timestamp without time zone</text>
<text text-anchor="start" x="2401.2275" y="-751.3" font-family="Times,serif" font-size="14.00" fill="#000000">sign_in_count :integer</text>
<text text-anchor="start" x="2401.2275" y="-737.3" font-family="Times,serif" font-size="14.00" fill="#000000">current_sign_in_at :timestamp without time zone</text>
<text text-anchor="start" x="2401.2275" y="-723.3" font-family="Times,serif" font-size="14.00" fill="#000000">last_sign_in_at :timestamp without time zone</text>
<text text-anchor="start" x="2401.2275" y="-709.3" font-family="Times,serif" font-size="14.00" fill="#000000">current_sign_in_ip :inet</text>
<text text-anchor="start" x="2401.2275" y="-695.3" font-family="Times,serif" font-size="14.00" fill="#000000">last_sign_in_ip :inet</text>
</g>
</g>
</svg>
